<svg width="411" height="131" viewBox="0 0 411 131" fill="none" xmlns="http://www.w3.org/2000/svg">
<g clip-path="url(#clip0_63_946)">
<path d="M129.097 1.83857C126.646 -0.612857 122.67 -0.612857 120.203 1.83857L52.0185 70.0229L38.4256 56.43L29.5313 65.3243L52.0027 87.7957L129.097 10.7329C131.548 8.28143 131.548 4.30571 129.097 1.83857Z" fill="white"/>
<path d="M101 105.286V112.624C101 115.5 98.6584 117.857 95.767 117.857H18.2327C15.3413 117.857 12.9998 115.5 12.9998 112.624V35.0899C12.9998 32.1985 15.3413 29.8571 18.2327 29.8571H25.5713V17.2856H18.2327C8.39555 17.2856 0.428406 25.2528 0.428406 35.0899V112.624C0.428406 122.446 8.39555 130.429 18.2327 130.429H95.767C105.604 130.429 113.571 122.446 113.571 112.624V105.286H101Z" fill="white" fill-opacity="0.6"/>
<path d="M113.571 35.0899V92.7142H101V35.0899C101 32.1985 98.6583 29.8571 95.7668 29.8571H38.1425V17.2856H95.7668C105.604 17.2856 113.571 25.2528 113.571 35.0899Z" fill="white"/>
</g>
<path d="M156.892 48.9971V54.8906H139.856V48.9971H156.892ZM143.724 42.2197H151.569V68.5928C151.569 69.3172 151.68 69.882 151.901 70.2872C152.122 70.6801 152.429 70.9563 152.822 71.116C153.227 71.2756 153.693 71.3554 154.221 71.3554C154.59 71.3554 154.958 71.3247 155.326 71.2633C155.695 71.1896 155.977 71.1344 156.173 71.0975L157.407 76.9357C157.014 77.0585 156.462 77.1997 155.75 77.3593C155.038 77.5312 154.172 77.6356 153.153 77.6724C151.262 77.7461 149.605 77.4944 148.18 76.9173C146.768 76.3402 145.67 75.4439 144.884 74.2284C144.098 73.0129 143.711 71.4782 143.724 69.6242V42.2197ZM162.002 77.2856V48.9971H169.609V53.9329H169.903C170.419 52.1771 171.285 50.8511 172.5 49.9548C173.716 49.0463 175.115 48.592 176.699 48.592C177.092 48.592 177.516 48.6165 177.97 48.6656C178.424 48.7148 178.823 48.7823 179.167 48.8682V55.8298C178.799 55.7193 178.289 55.6211 177.638 55.5352C176.988 55.4492 176.392 55.4063 175.852 55.4063C174.698 55.4063 173.666 55.658 172.758 56.1614C171.862 56.6525 171.15 57.34 170.622 58.2241C170.106 59.1081 169.848 60.1271 169.848 61.2813V77.2856H162.002ZM190.48 77.8197C188.675 77.8197 187.066 77.5066 185.654 76.8805C184.242 76.242 183.125 75.3027 182.303 74.0627C181.492 72.8103 181.087 71.251 181.087 69.3848C181.087 67.8132 181.376 66.4933 181.953 65.4251C182.53 64.3569 183.315 63.4975 184.31 62.8467C185.304 62.196 186.434 61.7049 187.699 61.3734C188.976 61.0419 190.314 60.8086 191.714 60.6735C193.359 60.5016 194.685 60.342 195.692 60.1947C196.698 60.0351 197.429 59.8018 197.883 59.4948C198.338 59.1879 198.565 58.7336 198.565 58.132V58.0215C198.565 56.8551 198.196 55.9526 197.46 55.3142C196.735 54.6757 195.704 54.3565 194.366 54.3565C192.954 54.3565 191.83 54.6696 190.995 55.2958C190.16 55.9097 189.608 56.6832 189.338 57.6163L182.082 57.027C182.45 55.308 183.174 53.8224 184.255 52.57C185.335 51.3054 186.729 50.3354 188.435 49.6602C190.154 48.9726 192.143 48.6288 194.402 48.6288C195.974 48.6288 197.478 48.813 198.915 49.1813C200.363 49.5497 201.647 50.1206 202.764 50.8941C203.893 51.6676 204.784 52.6621 205.434 53.8776C206.085 55.0809 206.41 56.5236 206.41 58.2056V77.2856H198.97V73.3628H198.749C198.295 74.2468 197.687 75.0265 196.926 75.7018C196.164 76.3648 195.25 76.8866 194.181 77.2672C193.113 77.6356 191.879 77.8197 190.48 77.8197ZM192.727 72.4051C193.881 72.4051 194.9 72.178 195.784 71.7237C196.668 71.2571 197.361 70.631 197.865 69.8452C198.368 69.0594 198.62 68.1692 198.62 67.1747V64.1727C198.374 64.3324 198.037 64.4797 197.607 64.6148C197.19 64.7375 196.717 64.8542 196.189 64.9647C195.661 65.0629 195.133 65.155 194.605 65.2409C194.077 65.3146 193.598 65.3821 193.169 65.4435C192.248 65.5786 191.443 65.7934 190.756 66.0881C190.068 66.3828 189.534 66.7818 189.154 67.2852C188.773 67.7763 188.583 68.3902 188.583 69.1269C188.583 70.1951 188.969 71.0116 189.743 71.5764C190.529 72.1289 191.523 72.4051 192.727 72.4051ZM237.857 48.9971L227.967 77.2856H219.127L209.237 48.9971H217.525L223.4 69.2374H223.695L229.551 48.9971H237.857ZM253.853 77.8382C250.943 77.8382 248.438 77.2488 246.338 76.0701C244.251 74.8792 242.643 73.1971 241.513 71.0239C240.384 68.8384 239.819 66.2539 239.819 63.2703C239.819 60.3604 240.384 57.8066 241.513 55.6088C242.643 53.4111 244.233 51.6983 246.283 50.4705C248.346 49.2427 250.765 48.6288 253.539 48.6288C255.406 48.6288 257.143 48.9296 258.751 49.5312C260.372 50.1206 261.784 51.0107 262.987 52.2017C264.203 53.3927 265.148 54.8906 265.824 56.6954C266.499 58.488 266.837 60.5876 266.837 62.9941V65.1488H242.95V60.2868H259.451C259.451 59.1572 259.206 58.1565 258.715 57.2848C258.224 56.4131 257.542 55.7316 256.67 55.2405C255.811 54.7371 254.81 54.4854 253.668 54.4854C252.477 54.4854 251.421 54.7617 250.501 55.3142C249.592 55.8544 248.88 56.5849 248.364 57.5058C247.849 58.4144 247.585 59.4273 247.572 60.5446V65.1673C247.572 66.567 247.83 67.7763 248.346 68.7954C248.874 69.8145 249.617 70.6003 250.574 71.1528C251.532 71.7053 252.668 71.9816 253.981 71.9816C254.853 71.9816 255.651 71.8588 256.376 71.6132C257.1 71.3677 257.72 70.9993 258.236 70.5082C258.751 70.0171 259.144 69.4154 259.414 68.7033L266.671 69.1822C266.302 70.9256 265.547 72.4481 264.405 73.7496C263.276 75.0388 261.815 76.0456 260.022 76.77C258.242 77.4821 256.185 77.8382 253.853 77.8382ZM279.802 39.5676V77.2856H271.956V39.5676H279.802ZM309.624 57.0638L302.441 57.5058C302.318 56.8919 302.054 56.3394 301.649 55.8483C301.244 55.3449 300.71 54.9458 300.047 54.6512C299.396 54.3442 298.617 54.1907 297.708 54.1907C296.492 54.1907 295.467 54.4486 294.632 54.9642C293.797 55.4676 293.38 56.1429 293.38 56.9901C293.38 57.6654 293.65 58.2363 294.19 58.7029C294.731 59.1695 295.658 59.5439 296.971 59.8263L302.091 60.8577C304.842 61.4225 306.892 62.331 308.243 63.5834C309.593 64.8358 310.268 66.481 310.268 68.5192C310.268 70.3731 309.722 72 308.629 73.3997C307.549 74.7994 306.063 75.8921 304.172 76.6779C302.294 77.4514 300.127 77.8382 297.671 77.8382C293.926 77.8382 290.943 77.0585 288.721 75.4992C286.51 73.9276 285.215 71.7912 284.835 69.0901L292.551 68.6849C292.785 69.8268 293.349 70.6985 294.246 71.3001C295.142 71.8895 296.29 72.1841 297.69 72.1841C299.065 72.1841 300.17 71.9202 301.005 71.3922C301.852 70.852 302.282 70.1583 302.294 69.3111C302.282 68.599 301.981 68.0158 301.391 67.5615C300.802 67.0949 299.893 66.7388 298.666 66.4933L293.767 65.5172C291.004 64.9647 288.948 64.007 287.597 62.6441C286.259 61.2813 285.59 59.5439 285.59 57.4321C285.59 55.615 286.081 54.0495 287.063 52.7358C288.058 51.422 289.451 50.4091 291.244 49.697C293.049 48.9849 295.16 48.6288 297.579 48.6288C301.152 48.6288 303.964 49.3839 306.014 50.8941C308.077 52.4043 309.28 54.4609 309.624 57.0638ZM323.054 60.9314V77.2856H315.209V39.5676H322.833V53.9882H323.165C323.803 52.3183 324.835 51.0107 326.259 50.0653C327.683 49.1076 329.47 48.6288 331.618 48.6288C333.583 48.6288 335.296 49.0585 336.757 49.918C338.23 50.7652 339.372 51.9868 340.182 53.583C341.005 55.1668 341.41 57.0638 341.398 59.2738V77.2856H333.552V60.6735C333.564 58.93 333.122 57.5733 332.226 56.6034C331.342 55.6334 330.102 55.1484 328.506 55.1484C327.438 55.1484 326.492 55.3756 325.67 55.8298C324.859 56.2841 324.221 56.9471 323.754 57.8189C323.3 58.6783 323.067 59.7158 323.054 60.9314ZM360.353 77.8382C357.493 77.8382 355.019 77.2304 352.931 76.0149C350.856 74.7871 349.254 73.0804 348.125 70.8949C346.995 68.6972 346.43 66.1495 346.43 63.2519C346.43 60.3297 346.995 57.7759 348.125 55.5904C349.254 53.3927 350.856 51.686 352.931 50.4705C355.019 49.2427 357.493 48.6288 360.353 48.6288C363.214 48.6288 365.682 49.2427 367.757 50.4705C369.844 51.686 371.453 53.3927 372.582 55.5904C373.712 57.7759 374.277 60.3297 374.277 63.2519C374.277 66.1495 373.712 68.6972 372.582 70.8949C371.453 73.0804 369.844 74.7871 367.757 76.0149C365.682 77.2304 363.214 77.8382 360.353 77.8382ZM360.39 71.7605C361.692 71.7605 362.778 71.3922 363.65 70.6555C364.522 69.9066 365.179 68.8875 365.621 67.5983C366.075 66.3091 366.302 64.8419 366.302 63.1966C366.302 61.5514 366.075 60.0842 365.621 58.795C365.179 57.5058 364.522 56.4867 363.65 55.7378C362.778 54.9888 361.692 54.6143 360.39 54.6143C359.076 54.6143 357.971 54.9888 357.075 55.7378C356.191 56.4867 355.522 57.5058 355.068 58.795C354.626 60.0842 354.405 61.5514 354.405 63.1966C354.405 64.8419 354.626 66.3091 355.068 67.5983C355.522 68.8875 356.191 69.9066 357.075 70.6555C357.971 71.3922 359.076 71.7605 360.39 71.7605ZM379.378 87.8938V48.9971H387.113V53.7487H387.463C387.807 52.9875 388.304 52.214 388.955 51.4282C389.618 50.6301 390.477 49.9671 391.533 49.4392C392.602 48.8989 393.928 48.6288 395.511 48.6288C397.574 48.6288 399.477 49.169 401.221 50.2495C402.964 51.3177 404.358 52.9322 405.401 55.0932C406.445 57.2418 406.967 59.9368 406.967 63.1782C406.967 66.3337 406.457 68.998 405.438 71.1712C404.431 73.3321 403.056 74.9712 401.313 76.0885C399.582 77.1936 397.642 77.7461 395.493 77.7461C393.971 77.7461 392.675 77.4944 391.607 76.991C390.551 76.4876 389.686 75.8553 389.01 75.094C388.335 74.3205 387.819 73.5409 387.463 72.7551H387.224V87.8938H379.378ZM387.058 63.1414C387.058 64.8235 387.291 66.2907 387.758 67.5431C388.224 68.7954 388.9 69.7715 389.784 70.4714C390.668 71.1589 391.742 71.5027 393.007 71.5027C394.284 71.5027 395.364 71.1528 396.248 70.4529C397.132 69.7408 397.801 68.7586 398.256 67.5062C398.722 66.2416 398.955 64.7866 398.955 63.1414C398.955 61.5084 398.728 60.0719 398.274 58.8318C397.82 57.5917 397.151 56.6218 396.267 55.9219C395.383 55.2221 394.296 54.8722 393.007 54.8722C391.73 54.8722 390.649 55.2098 389.765 55.8851C388.894 56.5604 388.224 57.5181 387.758 58.7582C387.291 59.9982 387.058 61.4593 387.058 63.1414Z" fill="white"/>
<path d="M141.246 112.571V89.5214H144.612V98.0863H144.814C145.009 97.7262 145.291 97.3097 145.658 96.837C146.026 96.3643 146.536 95.9517 147.189 95.599C147.842 95.2389 148.705 95.0588 149.778 95.0588C151.173 95.0588 152.419 95.4114 153.514 96.1167C154.61 96.822 155.469 97.8387 156.092 99.1668C156.722 100.495 157.037 102.093 157.037 103.961C157.037 105.83 156.726 107.432 156.103 108.767C155.48 110.095 154.625 111.119 153.537 111.84C152.449 112.553 151.207 112.909 149.811 112.909C148.761 112.909 147.902 112.733 147.234 112.38C146.574 112.027 146.056 111.615 145.681 111.142C145.306 110.669 145.017 110.249 144.814 109.881H144.533V112.571H141.246ZM144.544 103.928C144.544 105.143 144.72 106.209 145.073 107.124C145.426 108.039 145.936 108.756 146.604 109.274C147.271 109.784 148.089 110.039 149.057 110.039C150.063 110.039 150.903 109.773 151.578 109.24C152.254 108.7 152.764 107.968 153.109 107.045C153.462 106.122 153.638 105.083 153.638 103.928C153.638 102.787 153.465 101.763 153.12 100.855C152.783 99.9471 152.272 99.2306 151.59 98.7053C150.914 98.1801 150.07 97.9175 149.057 97.9175C148.082 97.9175 147.256 98.1689 146.581 98.6716C145.913 99.1743 145.407 99.8758 145.062 100.776C144.717 101.677 144.544 102.727 144.544 103.928ZM168.098 112.92C166.477 112.92 165.063 112.549 163.855 111.806C162.647 111.063 161.709 110.024 161.041 108.688C160.373 107.353 160.039 105.792 160.039 104.006C160.039 102.213 160.373 100.645 161.041 99.3018C161.709 97.9588 162.647 96.9158 163.855 96.173C165.063 95.4302 166.477 95.0588 168.098 95.0588C169.718 95.0588 171.133 95.4302 172.341 96.173C173.549 96.9158 174.487 97.9588 175.154 99.3018C175.822 100.645 176.156 102.213 176.156 104.006C176.156 105.792 175.822 107.353 175.154 108.688C174.487 110.024 173.549 111.063 172.341 111.806C171.133 112.549 169.718 112.92 168.098 112.92ZM168.109 110.095C169.159 110.095 170.03 109.818 170.72 109.262C171.41 108.707 171.92 107.968 172.251 107.045C172.588 106.122 172.757 105.106 172.757 103.995C172.757 102.892 172.588 101.879 172.251 100.956C171.92 100.026 171.41 99.2793 170.72 98.7166C170.03 98.1539 169.159 97.8725 168.109 97.8725C167.051 97.8725 166.173 98.1539 165.475 98.7166C164.785 99.2793 164.271 100.026 163.933 100.956C163.603 101.879 163.438 102.892 163.438 103.995C163.438 105.106 163.603 106.122 163.933 107.045C164.271 107.968 164.785 108.707 165.475 109.262C166.173 109.818 167.051 110.095 168.109 110.095ZM187.194 112.92C185.574 112.92 184.159 112.549 182.951 111.806C181.743 111.063 180.805 110.024 180.137 108.688C179.47 107.353 179.136 105.792 179.136 104.006C179.136 102.213 179.47 100.645 180.137 99.3018C180.805 97.9588 181.743 96.9158 182.951 96.173C184.159 95.4302 185.574 95.0588 187.194 95.0588C188.815 95.0588 190.229 95.4302 191.437 96.173C192.645 96.9158 193.583 97.9588 194.251 99.3018C194.919 100.645 195.253 102.213 195.253 104.006C195.253 105.792 194.919 107.353 194.251 108.688C193.583 110.024 192.645 111.063 191.437 111.806C190.229 112.549 188.815 112.92 187.194 112.92ZM187.205 110.095C188.256 110.095 189.126 109.818 189.817 109.262C190.507 108.707 191.017 107.968 191.347 107.045C191.685 106.122 191.854 105.106 191.854 103.995C191.854 102.892 191.685 101.879 191.347 100.956C191.017 100.026 190.507 99.2793 189.817 98.7166C189.126 98.1539 188.256 97.8725 187.205 97.8725C186.148 97.8725 185.27 98.1539 184.572 98.7166C183.882 99.2793 183.368 100.026 183.03 100.956C182.7 101.879 182.535 102.892 182.535 103.995C182.535 105.106 182.7 106.122 183.03 107.045C183.368 107.968 183.882 108.707 184.572 109.262C185.27 109.818 186.148 110.095 187.205 110.095ZM202.104 106.708L202.082 102.6H202.667L209.555 95.2839H213.584L205.728 103.612H205.199L202.104 106.708ZM199.009 112.571V89.5214H202.374V112.571H199.009ZM209.926 112.571L203.736 104.355L206.054 102.003L214.057 112.571H209.926ZM216.651 112.571V95.2839H220.016V112.571H216.651ZM218.35 92.6165C217.765 92.6165 217.262 92.4214 216.842 92.0312C216.43 91.6336 216.223 91.1609 216.223 90.6131C216.223 90.0579 216.43 89.5852 216.842 89.195C217.262 88.7973 217.765 88.5985 218.35 88.5985C218.936 88.5985 219.435 88.7973 219.847 89.195C220.267 89.5852 220.478 90.0579 220.478 90.6131C220.478 91.1609 220.267 91.6336 219.847 92.0312C219.435 92.4214 218.936 92.6165 218.35 92.6165ZM227.909 102.307V112.571H224.543V95.2839H227.773V98.0976H227.987C228.385 97.1822 229.008 96.4469 229.856 95.8916C230.711 95.3364 231.788 95.0588 233.086 95.0588C234.264 95.0588 235.295 95.3064 236.181 95.8016C237.066 96.2893 237.753 97.0171 238.24 97.985C238.728 98.9529 238.972 100.15 238.972 101.575V112.571H235.607V101.98C235.607 100.727 235.28 99.7483 234.628 99.043C233.975 98.3302 233.078 97.9738 231.938 97.9738C231.157 97.9738 230.463 98.1426 229.856 98.4802C229.255 98.8179 228.779 99.3131 228.426 99.9659C228.081 100.611 227.909 101.391 227.909 102.307ZM250.733 119.414C249.36 119.414 248.178 119.234 247.188 118.874C246.205 118.514 245.402 118.037 244.78 117.445C244.157 116.852 243.692 116.203 243.384 115.498L246.276 114.305C246.479 114.635 246.749 114.984 247.087 115.351C247.432 115.726 247.897 116.045 248.482 116.308C249.075 116.571 249.837 116.702 250.767 116.702C252.043 116.702 253.097 116.39 253.93 115.768C254.763 115.152 255.179 114.169 255.179 112.819V109.42H254.965C254.763 109.788 254.47 110.197 254.087 110.647C253.712 111.097 253.194 111.487 252.534 111.817C251.874 112.147 251.015 112.312 249.957 112.312C248.591 112.312 247.361 111.994 246.265 111.356C245.177 110.71 244.314 109.761 243.677 108.508C243.046 107.248 242.731 105.698 242.731 103.86C242.731 102.022 243.043 100.446 243.665 99.133C244.296 97.82 245.158 96.8145 246.254 96.1167C247.349 95.4114 248.591 95.0588 249.979 95.0588C251.052 95.0588 251.919 95.2389 252.579 95.599C253.239 95.9517 253.753 96.3643 254.121 96.837C254.496 97.3097 254.785 97.7262 254.988 98.0863H255.235V95.2839H258.533V112.954C258.533 114.44 258.188 115.659 257.497 116.612C256.807 117.565 255.873 118.27 254.695 118.728C253.525 119.185 252.204 119.414 250.733 119.414ZM250.7 109.521C251.667 109.521 252.485 109.296 253.153 108.846C253.828 108.388 254.339 107.735 254.684 106.888C255.036 106.032 255.213 105.008 255.213 103.815C255.213 102.652 255.04 101.628 254.695 100.742C254.35 99.8571 253.843 99.1668 253.176 98.6716C252.508 98.1689 251.683 97.9175 250.7 97.9175C249.687 97.9175 248.843 98.1801 248.167 98.7053C247.492 99.2231 246.982 99.9284 246.637 100.821C246.299 101.714 246.13 102.712 246.13 103.815C246.13 104.948 246.303 105.942 246.648 106.798C246.993 107.653 247.503 108.321 248.178 108.801C248.861 109.281 249.702 109.521 250.7 109.521Z" fill="white"/>
<defs>
<clipPath id="clip0_63_946">
<rect width="130.507" height="130.491" fill="white" transform="translate(0.428558)"/>
</clipPath>
</defs>
</svg>
