<svg width="410" height="131" viewBox="0 0 410 131" fill="none" xmlns="http://www.w3.org/2000/svg">
<g clip-path="url(#clip0_63_945)">
<path d="M128.668 1.83857C126.217 -0.612857 122.241 -0.612857 119.774 1.83857L51.5899 70.0229L37.997 56.43L29.1028 65.3243L51.5742 87.7957L128.668 10.7329C131.12 8.28143 131.12 4.30571 128.668 1.83857Z" fill="#854EC9"/>
<path d="M100.571 105.286V112.624C100.571 115.5 98.2298 117.857 95.3384 117.857H17.8041C14.9127 117.857 12.5713 115.5 12.5713 112.624V35.0899C12.5713 32.1985 14.9127 29.8571 17.8041 29.8571H25.1427V17.2856H17.8041C7.96699 17.2856 -0.000152588 25.2528 -0.000152588 35.0899V112.624C-0.000152588 122.446 7.96699 130.429 17.8041 130.429H95.3384C105.176 130.429 113.143 122.446 113.143 112.624V105.286H100.571Z" fill="#854EC9" fill-opacity="0.6"/>
<path d="M113.143 35.0899V92.7142H100.571V35.0899C100.571 32.1985 98.2297 29.8571 95.3383 29.8571H37.714V17.2856H95.3383C105.175 17.2856 113.143 25.2528 113.143 35.0899Z" fill="#854EC9"/>
</g>
<path d="M156.463 48.9971V54.8906H139.427V48.9971H156.463ZM143.295 42.2197H151.141V68.5928C151.141 69.3172 151.251 69.882 151.472 70.2872C151.693 70.6801 152 70.9563 152.393 71.116C152.798 71.2756 153.265 71.3554 153.793 71.3554C154.161 71.3554 154.529 71.3247 154.898 71.2633C155.266 71.1896 155.548 71.1344 155.745 71.0975L156.979 76.9357C156.586 77.0585 156.033 77.1997 155.321 77.3593C154.609 77.5312 153.744 77.6356 152.725 77.6724C150.834 77.7461 149.176 77.4944 147.752 76.9173C146.34 76.3402 145.241 75.4439 144.455 74.2284C143.669 73.0129 143.283 71.4782 143.295 69.6242V42.2197ZM161.574 77.2856V48.9971H169.18V53.9329H169.475C169.99 52.1771 170.856 50.8511 172.072 49.9548C173.287 49.0463 174.687 48.592 176.271 48.592C176.664 48.592 177.087 48.6165 177.541 48.6656C177.996 48.7148 178.395 48.7823 178.739 48.8682V55.8298C178.37 55.7193 177.861 55.6211 177.21 55.5352C176.559 55.4492 175.964 55.4063 175.423 55.4063C174.269 55.4063 173.238 55.658 172.329 56.1614C171.433 56.6525 170.721 57.34 170.193 58.2241C169.677 59.1081 169.42 60.1271 169.42 61.2813V77.2856H161.574ZM190.051 77.8197C188.246 77.8197 186.638 77.5066 185.226 76.8805C183.814 76.242 182.697 75.3027 181.874 74.0627C181.064 72.8103 180.658 71.251 180.658 69.3848C180.658 67.8132 180.947 66.4933 181.524 65.4251C182.101 64.3569 182.887 63.4975 183.881 62.8467C184.876 62.196 186.006 61.7049 187.27 61.3734C188.547 61.0419 189.885 60.8086 191.285 60.6735C192.93 60.5016 194.256 60.342 195.263 60.1947C196.27 60.0351 197 59.8018 197.455 59.4948C197.909 59.1879 198.136 58.7336 198.136 58.132V58.0215C198.136 56.8551 197.768 55.9526 197.031 55.3142C196.307 54.6757 195.275 54.3565 193.937 54.3565C192.525 54.3565 191.402 54.6696 190.567 55.2958C189.732 55.9097 189.179 56.6832 188.909 57.6163L181.653 57.027C182.021 55.308 182.746 53.8224 183.826 52.57C184.907 51.3054 186.3 50.3354 188.007 49.6602C189.726 48.9726 191.715 48.6288 193.974 48.6288C195.546 48.6288 197.05 48.813 198.486 49.1813C199.935 49.5497 201.218 50.1206 202.335 50.8941C203.465 51.6676 204.355 52.6621 205.006 53.8776C205.656 55.0809 205.982 56.5236 205.982 58.2056V77.2856H198.541V73.3628H198.32C197.866 74.2468 197.258 75.0265 196.497 75.7018C195.736 76.3648 194.821 76.8866 193.753 77.2672C192.685 77.6356 191.451 77.8197 190.051 77.8197ZM192.298 72.4051C193.452 72.4051 194.471 72.178 195.355 71.7237C196.239 71.2571 196.933 70.631 197.436 69.8452C197.94 69.0594 198.191 68.1692 198.191 67.1747V64.1727C197.946 64.3324 197.608 64.4797 197.179 64.6148C196.761 64.7375 196.288 64.8542 195.76 64.9647C195.232 65.0629 194.705 65.155 194.177 65.2409C193.649 65.3146 193.17 65.3821 192.74 65.4435C191.819 65.5786 191.015 65.7934 190.327 66.0881C189.64 66.3828 189.106 66.7818 188.725 67.2852C188.345 67.7763 188.154 68.3902 188.154 69.1269C188.154 70.1951 188.541 71.0116 189.314 71.5764C190.1 72.1289 191.095 72.4051 192.298 72.4051ZM237.429 48.9971L227.539 77.2856H218.699L208.809 48.9971H217.096L222.972 69.2374H223.266L229.123 48.9971H237.429ZM253.424 77.8382C250.514 77.8382 248.009 77.2488 245.91 76.0701C243.823 74.8792 242.214 73.1971 241.085 71.0239C239.955 68.8384 239.39 66.2539 239.39 63.2703C239.39 60.3604 239.955 57.8066 241.085 55.6088C242.214 53.4111 243.804 51.6983 245.855 50.4705C247.917 49.2427 250.336 48.6288 253.111 48.6288C254.977 48.6288 256.715 48.9296 258.323 49.5312C259.944 50.1206 261.356 51.0107 262.559 52.2017C263.774 53.3927 264.72 54.8906 265.395 56.6954C266.07 58.488 266.408 60.5876 266.408 62.9941V65.1488H242.521V60.2868H259.023C259.023 59.1572 258.777 58.1565 258.286 57.2848C257.795 56.4131 257.114 55.7316 256.242 55.2405C255.382 54.7371 254.382 54.4854 253.24 54.4854C252.049 54.4854 250.993 54.7617 250.072 55.3142C249.164 55.8544 248.451 56.5849 247.936 57.5058C247.42 58.4144 247.156 59.4273 247.144 60.5446V65.1673C247.144 66.567 247.402 67.7763 247.917 68.7954C248.445 69.8145 249.188 70.6003 250.146 71.1528C251.103 71.7053 252.239 71.9816 253.553 71.9816C254.425 71.9816 255.223 71.8588 255.947 71.6132C256.672 71.3677 257.292 70.9993 257.807 70.5082C258.323 70.0171 258.716 69.4154 258.986 68.7033L266.242 69.1822C265.874 70.9256 265.119 72.4481 263.977 73.7496C262.847 75.0388 261.386 76.0456 259.594 76.77C257.813 77.4821 255.757 77.8382 253.424 77.8382ZM279.374 39.5676V77.2856H271.528V39.5676H279.374ZM309.195 57.0638L302.013 57.5058C301.89 56.8919 301.626 56.3394 301.221 55.8483C300.816 55.3449 300.281 54.9458 299.618 54.6512C298.968 54.3442 298.188 54.1907 297.279 54.1907C296.064 54.1907 295.039 54.4486 294.204 54.9642C293.369 55.4676 292.951 56.1429 292.951 56.9901C292.951 57.6654 293.222 58.2363 293.762 58.7029C294.302 59.1695 295.229 59.5439 296.543 59.8263L301.663 60.8577C304.413 61.4225 306.463 62.331 307.814 63.5834C309.165 64.8358 309.84 66.481 309.84 68.5192C309.84 70.3731 309.293 72 308.201 73.3997C307.12 74.7994 305.635 75.8921 303.744 76.6779C301.865 77.4514 299.698 77.8382 297.243 77.8382C293.498 77.8382 290.514 77.0585 288.292 75.4992C286.082 73.9276 284.787 71.7912 284.406 69.0901L292.123 68.6849C292.356 69.8268 292.921 70.6985 293.817 71.3001C294.713 71.8895 295.861 72.1841 297.261 72.1841C298.636 72.1841 299.741 71.9202 300.576 71.3922C301.423 70.852 301.853 70.1583 301.865 69.3111C301.853 68.599 301.552 68.0158 300.963 67.5615C300.374 67.0949 299.465 66.7388 298.237 66.4933L293.338 65.5172C290.576 64.9647 288.519 64.007 287.169 62.6441C285.83 61.2813 285.161 59.5439 285.161 57.4321C285.161 55.615 285.652 54.0495 286.634 52.7358C287.629 51.422 289.023 50.4091 290.815 49.697C292.62 48.9849 294.732 48.6288 297.151 48.6288C300.723 48.6288 303.535 49.3839 305.586 50.8941C307.648 52.4043 308.851 54.4609 309.195 57.0638ZM322.626 60.9314V77.2856H314.78V39.5676H322.405V53.9882H322.736C323.375 52.3183 324.406 51.0107 325.83 50.0653C327.255 49.1076 329.041 48.6288 331.19 48.6288C333.154 48.6288 334.867 49.0585 336.328 49.918C337.801 50.7652 338.943 51.9868 339.754 53.583C340.576 55.1668 340.981 57.0638 340.969 59.2738V77.2856H333.124V60.6735C333.136 58.93 332.694 57.5733 331.798 56.6034C330.913 55.6334 329.673 55.1484 328.077 55.1484C327.009 55.1484 326.064 55.3756 325.241 55.8298C324.431 56.2841 323.792 56.9471 323.326 57.8189C322.871 58.6783 322.638 59.7158 322.626 60.9314ZM359.925 77.8382C357.064 77.8382 354.59 77.2304 352.503 76.0149C350.428 74.7871 348.826 73.0804 347.696 70.8949C346.566 68.6972 346.002 66.1495 346.002 63.2519C346.002 60.3297 346.566 57.7759 347.696 55.5904C348.826 53.3927 350.428 51.686 352.503 50.4705C354.59 49.2427 357.064 48.6288 359.925 48.6288C362.786 48.6288 365.254 49.2427 367.329 50.4705C369.416 51.686 371.024 53.3927 372.154 55.5904C373.283 57.7759 373.848 60.3297 373.848 63.2519C373.848 66.1495 373.283 68.6972 372.154 70.8949C371.024 73.0804 369.416 74.7871 367.329 76.0149C365.254 77.2304 362.786 77.8382 359.925 77.8382ZM359.962 71.7605C361.263 71.7605 362.35 71.3922 363.222 70.6555C364.093 69.9066 364.75 68.8875 365.192 67.5983C365.646 66.3091 365.874 64.8419 365.874 63.1966C365.874 61.5514 365.646 60.0842 365.192 58.795C364.75 57.5058 364.093 56.4867 363.222 55.7378C362.35 54.9888 361.263 54.6143 359.962 54.6143C358.648 54.6143 357.543 54.9888 356.647 55.7378C355.763 56.4867 355.093 57.5058 354.639 58.795C354.197 60.0842 353.976 61.5514 353.976 63.1966C353.976 64.8419 354.197 66.3091 354.639 67.5983C355.093 68.8875 355.763 69.9066 356.647 70.6555C357.543 71.3922 358.648 71.7605 359.962 71.7605ZM378.95 87.8938V48.9971H386.685V53.7487H387.035C387.378 52.9875 387.876 52.214 388.526 51.4282C389.189 50.6301 390.049 49.9671 391.105 49.4392C392.173 48.8989 393.499 48.6288 395.083 48.6288C397.146 48.6288 399.049 49.169 400.792 50.2495C402.536 51.3177 403.929 52.9322 404.973 55.0932C406.016 57.2418 406.538 59.9368 406.538 63.1782C406.538 66.3337 406.029 68.998 405.01 71.1712C404.003 73.3321 402.628 74.9712 400.884 76.0885C399.153 77.1936 397.213 77.7461 395.064 77.7461C393.542 77.7461 392.247 77.4944 391.178 76.991C390.123 76.4876 389.257 75.8553 388.582 75.094C387.906 74.3205 387.391 73.5409 387.035 72.7551H386.795V87.8938H378.95ZM386.63 63.1414C386.63 64.8235 386.863 66.2907 387.329 67.5431C387.796 68.7954 388.471 69.7715 389.355 70.4714C390.239 71.1589 391.314 71.5027 392.578 71.5027C393.855 71.5027 394.936 71.1528 395.82 70.4529C396.704 69.7408 397.373 68.7586 397.827 67.5062C398.294 66.2416 398.527 64.7866 398.527 63.1414C398.527 61.5084 398.3 60.0719 397.845 58.8318C397.391 57.5917 396.722 56.6218 395.838 55.9219C394.954 55.2221 393.867 54.8722 392.578 54.8722C391.301 54.8722 390.221 55.2098 389.337 55.8851C388.465 56.5604 387.796 57.5181 387.329 58.7582C386.863 59.9982 386.63 61.4593 386.63 63.1414Z" fill="#090A24"/>
<path d="M140.818 112.571V89.5214H144.183V98.0863H144.386C144.581 97.7262 144.862 97.3097 145.23 96.837C145.597 96.3643 146.108 95.9517 146.76 95.599C147.413 95.2389 148.276 95.0588 149.349 95.0588C150.745 95.0588 151.99 95.4114 153.086 96.1167C154.181 96.822 155.04 97.8387 155.663 99.1668C156.293 100.495 156.608 102.093 156.608 103.961C156.608 105.83 156.297 107.432 155.674 108.767C155.051 110.095 154.196 111.119 153.108 111.84C152.02 112.553 150.778 112.909 149.383 112.909C148.332 112.909 147.473 112.733 146.805 112.38C146.145 112.027 145.627 111.615 145.252 111.142C144.877 110.669 144.588 110.249 144.386 109.881H144.104V112.571H140.818ZM144.116 103.928C144.116 105.143 144.292 106.209 144.644 107.124C144.997 108.039 145.507 108.756 146.175 109.274C146.843 109.784 147.661 110.039 148.629 110.039C149.634 110.039 150.475 109.773 151.15 109.24C151.825 108.7 152.335 107.968 152.68 107.045C153.033 106.122 153.209 105.083 153.209 103.928C153.209 102.787 153.037 101.763 152.692 100.855C152.354 99.9471 151.844 99.2306 151.161 98.7053C150.486 98.1801 149.642 97.9175 148.629 97.9175C147.653 97.9175 146.828 98.1689 146.153 98.6716C145.485 99.1743 144.978 99.8758 144.633 100.776C144.288 101.677 144.116 102.727 144.116 103.928ZM167.669 112.92C166.048 112.92 164.634 112.549 163.426 111.806C162.218 111.063 161.28 110.024 160.612 108.688C159.944 107.353 159.611 105.792 159.611 104.006C159.611 102.213 159.944 100.645 160.612 99.3018C161.28 97.9588 162.218 96.9158 163.426 96.173C164.634 95.4302 166.048 95.0588 167.669 95.0588C169.29 95.0588 170.704 95.4302 171.912 96.173C173.12 96.9158 174.058 97.9588 174.726 99.3018C175.394 100.645 175.728 102.213 175.728 104.006C175.728 105.792 175.394 107.353 174.726 108.688C174.058 110.024 173.12 111.063 171.912 111.806C170.704 112.549 169.29 112.92 167.669 112.92ZM167.68 110.095C168.731 110.095 169.601 109.818 170.291 109.262C170.982 108.707 171.492 107.968 171.822 107.045C172.16 106.122 172.329 105.106 172.329 103.995C172.329 102.892 172.16 101.879 171.822 100.956C171.492 100.026 170.982 99.2793 170.291 98.7166C169.601 98.1539 168.731 97.8725 167.68 97.8725C166.622 97.8725 165.744 98.1539 165.047 98.7166C164.356 99.2793 163.842 100.026 163.505 100.956C163.175 101.879 163.01 102.892 163.01 103.995C163.01 105.106 163.175 106.122 163.505 107.045C163.842 107.968 164.356 108.707 165.047 109.262C165.744 109.818 166.622 110.095 167.68 110.095ZM186.766 112.92C185.145 112.92 183.731 112.549 182.523 111.806C181.315 111.063 180.377 110.024 179.709 108.688C179.041 107.353 178.707 105.792 178.707 104.006C178.707 102.213 179.041 100.645 179.709 99.3018C180.377 97.9588 181.315 96.9158 182.523 96.173C183.731 95.4302 185.145 95.0588 186.766 95.0588C188.386 95.0588 189.801 95.4302 191.009 96.173C192.217 96.9158 193.155 97.9588 193.822 99.3018C194.49 100.645 194.824 102.213 194.824 104.006C194.824 105.792 194.49 107.353 193.822 108.688C193.155 110.024 192.217 111.063 191.009 111.806C189.801 112.549 188.386 112.92 186.766 112.92ZM186.777 110.095C187.827 110.095 188.698 109.818 189.388 109.262C190.078 108.707 190.589 107.968 190.919 107.045C191.256 106.122 191.425 105.106 191.425 103.995C191.425 102.892 191.256 101.879 190.919 100.956C190.589 100.026 190.078 99.2793 189.388 98.7166C188.698 98.1539 187.827 97.8725 186.777 97.8725C185.719 97.8725 184.841 98.1539 184.143 98.7166C183.453 99.2793 182.939 100.026 182.601 100.956C182.271 101.879 182.106 102.892 182.106 103.995C182.106 105.106 182.271 106.122 182.601 107.045C182.939 107.968 183.453 108.707 184.143 109.262C184.841 109.818 185.719 110.095 186.777 110.095ZM201.676 106.708L201.653 102.6H202.238L209.126 95.2839H213.155L205.3 103.612H204.771L201.676 106.708ZM198.58 112.571V89.5214H201.946V112.571H198.58ZM209.498 112.571L203.307 104.355L205.626 102.003L213.628 112.571H209.498ZM216.222 112.571V95.2839H219.588V112.571H216.222ZM217.922 92.6165C217.337 92.6165 216.834 92.4214 216.414 92.0312C216.001 91.6336 215.795 91.1609 215.795 90.6131C215.795 90.0579 216.001 89.5852 216.414 89.195C216.834 88.7973 217.337 88.5985 217.922 88.5985C218.507 88.5985 219.006 88.7973 219.419 89.195C219.839 89.5852 220.049 90.0579 220.049 90.6131C220.049 91.1609 219.839 91.6336 219.419 92.0312C219.006 92.4214 218.507 92.6165 217.922 92.6165ZM227.48 102.307V112.571H224.115V95.2839H227.345V98.0976H227.559C227.956 97.1822 228.579 96.4469 229.427 95.8916C230.282 95.3364 231.359 95.0588 232.657 95.0588C233.835 95.0588 234.867 95.3064 235.752 95.8016C236.638 96.2893 237.324 97.0171 237.812 97.985C238.3 98.9529 238.544 100.15 238.544 101.575V112.571H235.178V101.98C235.178 100.727 234.852 99.7483 234.199 99.043C233.546 98.3302 232.65 97.9738 231.509 97.9738C230.729 97.9738 230.035 98.1426 229.427 98.4802C228.827 98.8179 228.35 99.3131 227.998 99.9659C227.653 100.611 227.48 101.391 227.48 102.307ZM250.305 119.414C248.932 119.414 247.75 119.234 246.76 118.874C245.777 118.514 244.974 118.037 244.351 117.445C243.728 116.852 243.263 116.203 242.955 115.498L245.848 114.305C246.05 114.635 246.321 114.984 246.658 115.351C247.003 115.726 247.469 116.045 248.054 116.308C248.647 116.571 249.408 116.702 250.339 116.702C251.614 116.702 252.668 116.39 253.501 115.768C254.334 115.152 254.75 114.169 254.75 112.819V109.42H254.537C254.334 109.788 254.041 110.197 253.659 110.647C253.284 111.097 252.766 111.487 252.106 111.817C251.445 112.147 250.586 112.312 249.528 112.312C248.163 112.312 246.932 111.994 245.837 111.356C244.749 110.71 243.886 109.761 243.248 108.508C242.618 107.248 242.303 105.698 242.303 103.86C242.303 102.022 242.614 100.446 243.237 99.133C243.867 97.82 244.73 96.8145 245.825 96.1167C246.921 95.4114 248.163 95.0588 249.551 95.0588C250.624 95.0588 251.49 95.2389 252.151 95.599C252.811 95.9517 253.325 96.3643 253.693 96.837C254.068 97.3097 254.357 97.7262 254.559 98.0863H254.807V95.2839H258.104V112.954C258.104 114.44 257.759 115.659 257.069 116.612C256.379 117.565 255.445 118.27 254.267 118.728C253.096 119.185 251.775 119.414 250.305 119.414ZM250.271 109.521C251.239 109.521 252.057 109.296 252.725 108.846C253.4 108.388 253.91 107.735 254.255 106.888C254.608 106.032 254.784 105.008 254.784 103.815C254.784 102.652 254.612 101.628 254.267 100.742C253.921 99.8571 253.415 99.1668 252.747 98.6716C252.079 98.1689 251.254 97.9175 250.271 97.9175C249.258 97.9175 248.414 98.1801 247.739 98.7053C247.063 99.2231 246.553 99.9284 246.208 100.821C245.87 101.714 245.702 102.712 245.702 103.815C245.702 104.948 245.874 105.942 246.219 106.798C246.564 107.653 247.075 108.321 247.75 108.801C248.433 109.281 249.273 109.521 250.271 109.521Z" fill="#090A24"/>
<defs>
<clipPath id="clip0_63_945">
<rect width="130.507" height="130.491" fill="white"/>
</clipPath>
</defs>
</svg>
